<mxfile host="app.diagrams.net" modified="2024-07-23T02:48:32.963Z" agent="Mozilla/5.0 (Windows NT 10.0; Win64; x64) AppleWebKit/537.36 (KHTML, like Gecko) Chrome/126.0.0.0 Safari/537.36" etag="hek3HjKQxxkaXSnOIHJe" version="24.7.3" type="device">
  <diagram name="Page-1" id="_c8mprmIlxQmRkIcnTx5">
    <mxGraphModel dx="1908" dy="1184" grid="1" gridSize="10" guides="1" tooltips="1" connect="1" arrows="1" fold="1" page="1" pageScale="1" pageWidth="850" pageHeight="1100" math="0" shadow="0">
      <root>
        <mxCell id="0" />
        <mxCell id="1" parent="0" />
        <mxCell id="gbRmKxwOIsBdeHduXgDJ-1" value="nama_depan" style="ellipse;whiteSpace=wrap;html=1;align=center;" vertex="1" parent="1">
          <mxGeometry x="20" y="30" width="100" height="40" as="geometry" />
        </mxCell>
        <mxCell id="gbRmKxwOIsBdeHduXgDJ-4" value="nama_belakang" style="ellipse;whiteSpace=wrap;html=1;align=center;" vertex="1" parent="1">
          <mxGeometry x="270" y="30" width="100" height="40" as="geometry" />
        </mxCell>
        <mxCell id="gbRmKxwOIsBdeHduXgDJ-5" value="nama_tengah" style="ellipse;whiteSpace=wrap;html=1;align=center;" vertex="1" parent="1">
          <mxGeometry x="150" y="10" width="100" height="40" as="geometry" />
        </mxCell>
        <mxCell id="gbRmKxwOIsBdeHduXgDJ-12" value="" style="endArrow=none;html=1;rounded=0;entryX=0;entryY=0.5;entryDx=0;entryDy=0;" edge="1" parent="1" source="gbRmKxwOIsBdeHduXgDJ-46" target="gbRmKxwOIsBdeHduXgDJ-57">
          <mxGeometry relative="1" as="geometry">
            <mxPoint x="40" y="220" as="sourcePoint" />
            <mxPoint x="720" y="220" as="targetPoint" />
            <Array as="points">
              <mxPoint x="430" y="220" />
            </Array>
          </mxGeometry>
        </mxCell>
        <mxCell id="gbRmKxwOIsBdeHduXgDJ-109" value="many" style="edgeLabel;html=1;align=center;verticalAlign=middle;resizable=0;points=[];" vertex="1" connectable="0" parent="gbRmKxwOIsBdeHduXgDJ-12">
          <mxGeometry x="0.2925" y="3" relative="1" as="geometry">
            <mxPoint as="offset" />
          </mxGeometry>
        </mxCell>
        <mxCell id="gbRmKxwOIsBdeHduXgDJ-15" value="&lt;u&gt;nim&lt;/u&gt;" style="ellipse;whiteSpace=wrap;html=1;align=center;" vertex="1" parent="1">
          <mxGeometry x="10" y="130" width="100" height="40" as="geometry" />
        </mxCell>
        <mxCell id="gbRmKxwOIsBdeHduXgDJ-17" value="jurusan" style="ellipse;whiteSpace=wrap;html=1;align=center;" vertex="1" parent="1">
          <mxGeometry y="200" width="100" height="40" as="geometry" />
        </mxCell>
        <mxCell id="gbRmKxwOIsBdeHduXgDJ-18" value="alamat" style="ellipse;whiteSpace=wrap;html=1;align=center;" vertex="1" parent="1">
          <mxGeometry x="20" y="280" width="100" height="40" as="geometry" />
        </mxCell>
        <mxCell id="gbRmKxwOIsBdeHduXgDJ-19" value="" style="endArrow=none;html=1;rounded=0;exitX=1;exitY=0.5;exitDx=0;exitDy=0;exitPerimeter=0;entryX=0.967;entryY=0.675;entryDx=0;entryDy=0;entryPerimeter=0;" edge="1" parent="1" source="gbRmKxwOIsBdeHduXgDJ-18" target="gbRmKxwOIsBdeHduXgDJ-15">
          <mxGeometry relative="1" as="geometry">
            <mxPoint x="130" y="290" as="sourcePoint" />
            <mxPoint x="120" y="150" as="targetPoint" />
            <Array as="points">
              <mxPoint x="160" y="220" />
            </Array>
          </mxGeometry>
        </mxCell>
        <mxCell id="gbRmKxwOIsBdeHduXgDJ-21" value="" style="endArrow=none;html=1;rounded=0;exitX=1;exitY=0.5;exitDx=0;exitDy=0;" edge="1" parent="1" source="gbRmKxwOIsBdeHduXgDJ-17" target="gbRmKxwOIsBdeHduXgDJ-20">
          <mxGeometry relative="1" as="geometry">
            <mxPoint x="40" y="220" as="sourcePoint" />
            <mxPoint x="550" y="220" as="targetPoint" />
          </mxGeometry>
        </mxCell>
        <mxCell id="gbRmKxwOIsBdeHduXgDJ-20" value="Mahasiswa" style="whiteSpace=wrap;html=1;align=center;" vertex="1" parent="1">
          <mxGeometry x="160" y="200" width="100" height="40" as="geometry" />
        </mxCell>
        <mxCell id="gbRmKxwOIsBdeHduXgDJ-36" value="" style="endArrow=none;html=1;rounded=0;entryX=0.5;entryY=1;entryDx=0;entryDy=0;exitX=0.417;exitY=0.008;exitDx=0;exitDy=0;exitPerimeter=0;" edge="1" parent="1" source="gbRmKxwOIsBdeHduXgDJ-20" target="gbRmKxwOIsBdeHduXgDJ-38">
          <mxGeometry relative="1" as="geometry">
            <mxPoint x="130" y="190" as="sourcePoint" />
            <mxPoint x="290" y="190" as="targetPoint" />
          </mxGeometry>
        </mxCell>
        <mxCell id="gbRmKxwOIsBdeHduXgDJ-38" value="nama" style="ellipse;whiteSpace=wrap;html=1;align=center;" vertex="1" parent="1">
          <mxGeometry x="150" y="110" width="100" height="40" as="geometry" />
        </mxCell>
        <mxCell id="gbRmKxwOIsBdeHduXgDJ-42" value="" style="endArrow=none;html=1;rounded=0;entryX=0.442;entryY=1.008;entryDx=0;entryDy=0;entryPerimeter=0;exitX=1;exitY=0;exitDx=0;exitDy=0;" edge="1" parent="1" source="gbRmKxwOIsBdeHduXgDJ-38" target="gbRmKxwOIsBdeHduXgDJ-4">
          <mxGeometry relative="1" as="geometry">
            <mxPoint x="380" y="210" as="sourcePoint" />
            <mxPoint x="540" y="210" as="targetPoint" />
          </mxGeometry>
        </mxCell>
        <mxCell id="gbRmKxwOIsBdeHduXgDJ-43" value="" style="endArrow=none;html=1;rounded=0;" edge="1" parent="1" source="gbRmKxwOIsBdeHduXgDJ-38" target="gbRmKxwOIsBdeHduXgDJ-5">
          <mxGeometry relative="1" as="geometry">
            <mxPoint x="238" y="133" as="sourcePoint" />
            <mxPoint x="324" y="80" as="targetPoint" />
          </mxGeometry>
        </mxCell>
        <mxCell id="gbRmKxwOIsBdeHduXgDJ-45" value="" style="endArrow=none;html=1;rounded=0;entryX=0;entryY=0;entryDx=0;entryDy=0;exitX=0.983;exitY=0.696;exitDx=0;exitDy=0;exitPerimeter=0;" edge="1" parent="1" source="gbRmKxwOIsBdeHduXgDJ-1" target="gbRmKxwOIsBdeHduXgDJ-38">
          <mxGeometry relative="1" as="geometry">
            <mxPoint x="248" y="143" as="sourcePoint" />
            <mxPoint x="334" y="90" as="targetPoint" />
          </mxGeometry>
        </mxCell>
        <mxCell id="gbRmKxwOIsBdeHduXgDJ-47" value="" style="endArrow=none;html=1;rounded=0;" edge="1" parent="1" source="gbRmKxwOIsBdeHduXgDJ-20" target="gbRmKxwOIsBdeHduXgDJ-46">
          <mxGeometry relative="1" as="geometry">
            <mxPoint x="260" y="220" as="sourcePoint" />
            <mxPoint x="720" y="220" as="targetPoint" />
            <Array as="points" />
          </mxGeometry>
        </mxCell>
        <mxCell id="gbRmKxwOIsBdeHduXgDJ-108" value="many" style="edgeLabel;html=1;align=center;verticalAlign=middle;resizable=0;points=[];" vertex="1" connectable="0" parent="gbRmKxwOIsBdeHduXgDJ-47">
          <mxGeometry x="-0.2703" y="-3" relative="1" as="geometry">
            <mxPoint as="offset" />
          </mxGeometry>
        </mxCell>
        <mxCell id="gbRmKxwOIsBdeHduXgDJ-46" value="Mahasiswa" style="shape=rhombus;perimeter=rhombusPerimeter;whiteSpace=wrap;html=1;align=center;" vertex="1" parent="1">
          <mxGeometry x="425" y="190" width="120" height="60" as="geometry" />
        </mxCell>
        <mxCell id="gbRmKxwOIsBdeHduXgDJ-49" value="" style="endArrow=none;html=1;rounded=0;entryX=0.424;entryY=0.075;entryDx=0;entryDy=0;entryPerimeter=0;" edge="1" parent="1" source="gbRmKxwOIsBdeHduXgDJ-51" target="gbRmKxwOIsBdeHduXgDJ-46">
          <mxGeometry relative="1" as="geometry">
            <mxPoint x="400" y="150" as="sourcePoint" />
            <mxPoint x="440" y="210" as="targetPoint" />
          </mxGeometry>
        </mxCell>
        <mxCell id="gbRmKxwOIsBdeHduXgDJ-50" value="" style="endArrow=none;html=1;rounded=0;entryX=0.583;entryY=0.078;entryDx=0;entryDy=0;entryPerimeter=0;" edge="1" parent="1" source="gbRmKxwOIsBdeHduXgDJ-52" target="gbRmKxwOIsBdeHduXgDJ-46">
          <mxGeometry relative="1" as="geometry">
            <mxPoint x="540" y="150" as="sourcePoint" />
            <mxPoint x="482.36" y="189.99999999999997" as="targetPoint" />
          </mxGeometry>
        </mxCell>
        <mxCell id="gbRmKxwOIsBdeHduXgDJ-51" value="alamat" style="ellipse;whiteSpace=wrap;html=1;align=center;" vertex="1" parent="1">
          <mxGeometry x="310" y="90" width="100" height="40" as="geometry" />
        </mxCell>
        <mxCell id="gbRmKxwOIsBdeHduXgDJ-52" value="nama" style="ellipse;whiteSpace=wrap;html=1;align=center;" vertex="1" parent="1">
          <mxGeometry x="520" y="80" width="100" height="40" as="geometry" />
        </mxCell>
        <mxCell id="gbRmKxwOIsBdeHduXgDJ-53" value="" style="endArrow=none;html=1;rounded=0;entryX=0.444;entryY=0.058;entryDx=0;entryDy=0;entryPerimeter=0;exitX=0.5;exitY=1;exitDx=0;exitDy=0;" edge="1" parent="1" source="gbRmKxwOIsBdeHduXgDJ-55" target="gbRmKxwOIsBdeHduXgDJ-46">
          <mxGeometry relative="1" as="geometry">
            <mxPoint x="400" y="50" as="sourcePoint" />
            <mxPoint x="470" y="200" as="targetPoint" />
          </mxGeometry>
        </mxCell>
        <mxCell id="gbRmKxwOIsBdeHduXgDJ-54" value="" style="endArrow=none;html=1;rounded=0;entryX=0.569;entryY=0.049;entryDx=0;entryDy=0;entryPerimeter=0;" edge="1" parent="1" source="gbRmKxwOIsBdeHduXgDJ-56" target="gbRmKxwOIsBdeHduXgDJ-46">
          <mxGeometry relative="1" as="geometry">
            <mxPoint x="520" y="50" as="sourcePoint" />
            <mxPoint x="490" y="190" as="targetPoint" />
          </mxGeometry>
        </mxCell>
        <mxCell id="gbRmKxwOIsBdeHduXgDJ-55" value="jurusan" style="ellipse;whiteSpace=wrap;html=1;align=center;" vertex="1" parent="1">
          <mxGeometry x="375" y="30" width="100" height="40" as="geometry" />
        </mxCell>
        <mxCell id="gbRmKxwOIsBdeHduXgDJ-56" value="&lt;u&gt;nim&lt;/u&gt;" style="ellipse;whiteSpace=wrap;html=1;align=center;" vertex="1" parent="1">
          <mxGeometry x="480" y="30" width="100" height="40" as="geometry" />
        </mxCell>
        <mxCell id="gbRmKxwOIsBdeHduXgDJ-57" value="anggota&lt;div&gt;perpustakan&lt;/div&gt;" style="whiteSpace=wrap;html=1;align=center;" vertex="1" parent="1">
          <mxGeometry x="680" y="200" width="100" height="40" as="geometry" />
        </mxCell>
        <mxCell id="gbRmKxwOIsBdeHduXgDJ-61" value="" style="endArrow=none;html=1;rounded=0;entryX=0.34;entryY=0.992;entryDx=0;entryDy=0;entryPerimeter=0;" edge="1" parent="1" source="gbRmKxwOIsBdeHduXgDJ-57" target="gbRmKxwOIsBdeHduXgDJ-64">
          <mxGeometry relative="1" as="geometry">
            <mxPoint x="730" y="200.32" as="sourcePoint" />
            <mxPoint x="759" y="170" as="targetPoint" />
            <Array as="points">
              <mxPoint x="750" y="190" />
              <mxPoint x="760" y="170" />
            </Array>
          </mxGeometry>
        </mxCell>
        <mxCell id="gbRmKxwOIsBdeHduXgDJ-62" value="" style="endArrow=none;html=1;rounded=0;entryX=0.477;entryY=0.033;entryDx=0;entryDy=0;entryPerimeter=0;" edge="1" parent="1" source="gbRmKxwOIsBdeHduXgDJ-63" target="gbRmKxwOIsBdeHduXgDJ-57">
          <mxGeometry relative="1" as="geometry">
            <mxPoint x="690" y="170" as="sourcePoint" />
            <mxPoint x="840" y="130" as="targetPoint" />
            <Array as="points">
              <mxPoint x="720" y="200" />
            </Array>
          </mxGeometry>
        </mxCell>
        <mxCell id="gbRmKxwOIsBdeHduXgDJ-63" value="&lt;u&gt;nomor&lt;/u&gt;&lt;div&gt;&lt;u&gt;anggota&lt;/u&gt;&lt;/div&gt;" style="ellipse;whiteSpace=wrap;html=1;align=center;" vertex="1" parent="1">
          <mxGeometry x="580" y="120" width="100" height="40" as="geometry" />
        </mxCell>
        <mxCell id="gbRmKxwOIsBdeHduXgDJ-64" value="masa berlaku" style="ellipse;whiteSpace=wrap;html=1;align=center;" vertex="1" parent="1">
          <mxGeometry x="760" y="110" width="90" height="40" as="geometry" />
        </mxCell>
        <mxCell id="gbRmKxwOIsBdeHduXgDJ-66" value="" style="endArrow=none;html=1;rounded=0;entryX=0.468;entryY=-0.033;entryDx=0;entryDy=0;entryPerimeter=0;" edge="1" parent="1" source="gbRmKxwOIsBdeHduXgDJ-67" target="gbRmKxwOIsBdeHduXgDJ-57">
          <mxGeometry relative="1" as="geometry">
            <mxPoint x="670" y="100" as="sourcePoint" />
            <mxPoint x="780" y="120" as="targetPoint" />
          </mxGeometry>
        </mxCell>
        <mxCell id="gbRmKxwOIsBdeHduXgDJ-67" value="nama" style="ellipse;whiteSpace=wrap;html=1;align=center;" vertex="1" parent="1">
          <mxGeometry x="620" y="60" width="100" height="40" as="geometry" />
        </mxCell>
        <mxCell id="gbRmKxwOIsBdeHduXgDJ-69" value="" style="endArrow=none;html=1;rounded=0;entryX=0.567;entryY=0.009;entryDx=0;entryDy=0;entryPerimeter=0;exitX=0.424;exitY=1;exitDx=0;exitDy=0;exitPerimeter=0;" edge="1" parent="1" source="gbRmKxwOIsBdeHduXgDJ-70" target="gbRmKxwOIsBdeHduXgDJ-57">
          <mxGeometry relative="1" as="geometry">
            <mxPoint x="750" y="70" as="sourcePoint" />
            <mxPoint x="780" y="120" as="targetPoint" />
          </mxGeometry>
        </mxCell>
        <mxCell id="gbRmKxwOIsBdeHduXgDJ-70" value="jurusan" style="ellipse;whiteSpace=wrap;html=1;align=center;" vertex="1" parent="1">
          <mxGeometry x="720" y="60" width="100" height="40" as="geometry" />
        </mxCell>
        <mxCell id="gbRmKxwOIsBdeHduXgDJ-71" value="" style="endArrow=none;html=1;rounded=0;exitX=0.494;exitY=0.05;exitDx=0;exitDy=0;exitPerimeter=0;entryX=0.49;entryY=0.95;entryDx=0;entryDy=0;entryPerimeter=0;" edge="1" parent="1" source="gbRmKxwOIsBdeHduXgDJ-72" target="gbRmKxwOIsBdeHduXgDJ-57">
          <mxGeometry relative="1" as="geometry">
            <mxPoint x="730" y="320" as="sourcePoint" />
            <mxPoint x="729" y="240" as="targetPoint" />
          </mxGeometry>
        </mxCell>
        <mxCell id="gbRmKxwOIsBdeHduXgDJ-110" value="1" style="edgeLabel;html=1;align=center;verticalAlign=middle;resizable=0;points=[];" vertex="1" connectable="0" parent="gbRmKxwOIsBdeHduXgDJ-71">
          <mxGeometry x="-0.2613" y="-2" relative="1" as="geometry">
            <mxPoint as="offset" />
          </mxGeometry>
        </mxCell>
        <mxCell id="gbRmKxwOIsBdeHduXgDJ-72" value="meminjam" style="shape=rhombus;perimeter=rhombusPerimeter;whiteSpace=wrap;html=1;align=center;" vertex="1" parent="1">
          <mxGeometry x="670" y="320" width="120" height="60" as="geometry" />
        </mxCell>
        <mxCell id="gbRmKxwOIsBdeHduXgDJ-73" value="" style="endArrow=none;html=1;rounded=0;exitX=0.5;exitY=1;exitDx=0;exitDy=0;" edge="1" parent="1" source="gbRmKxwOIsBdeHduXgDJ-72" target="gbRmKxwOIsBdeHduXgDJ-74">
          <mxGeometry relative="1" as="geometry">
            <mxPoint x="640" y="410" as="sourcePoint" />
            <mxPoint x="730" y="480" as="targetPoint" />
          </mxGeometry>
        </mxCell>
        <mxCell id="gbRmKxwOIsBdeHduXgDJ-75" value="Many" style="edgeLabel;html=1;align=center;verticalAlign=middle;resizable=0;points=[];" vertex="1" connectable="0" parent="gbRmKxwOIsBdeHduXgDJ-73">
          <mxGeometry x="-0.3133" y="-1" relative="1" as="geometry">
            <mxPoint as="offset" />
          </mxGeometry>
        </mxCell>
        <mxCell id="gbRmKxwOIsBdeHduXgDJ-74" value="buku" style="whiteSpace=wrap;html=1;align=center;" vertex="1" parent="1">
          <mxGeometry x="680" y="480" width="100" height="40" as="geometry" />
        </mxCell>
        <mxCell id="gbRmKxwOIsBdeHduXgDJ-79" value="" style="endArrow=none;html=1;rounded=0;exitX=0.437;exitY=1.05;exitDx=0;exitDy=0;exitPerimeter=0;" edge="1" parent="1" source="gbRmKxwOIsBdeHduXgDJ-80" target="gbRmKxwOIsBdeHduXgDJ-72">
          <mxGeometry relative="1" as="geometry">
            <mxPoint x="790" y="270" as="sourcePoint" />
            <mxPoint x="800" y="290" as="targetPoint" />
          </mxGeometry>
        </mxCell>
        <mxCell id="gbRmKxwOIsBdeHduXgDJ-80" value="nomor&lt;div&gt;anggota&lt;/div&gt;" style="ellipse;whiteSpace=wrap;html=1;align=center;fontStyle=4;" vertex="1" parent="1">
          <mxGeometry x="740" y="250" width="100" height="40" as="geometry" />
        </mxCell>
        <mxCell id="gbRmKxwOIsBdeHduXgDJ-81" value="" style="endArrow=none;html=1;rounded=0;exitX=0.872;exitY=0.317;exitDx=0;exitDy=0;exitPerimeter=0;" edge="1" parent="1" source="gbRmKxwOIsBdeHduXgDJ-72" target="gbRmKxwOIsBdeHduXgDJ-82">
          <mxGeometry relative="1" as="geometry">
            <mxPoint x="670" y="330" as="sourcePoint" />
            <mxPoint x="830" y="310" as="targetPoint" />
          </mxGeometry>
        </mxCell>
        <mxCell id="gbRmKxwOIsBdeHduXgDJ-82" value="&lt;u&gt;nomor&lt;/u&gt;&lt;div&gt;&lt;u&gt;buku&lt;/u&gt;&lt;/div&gt;" style="ellipse;whiteSpace=wrap;html=1;align=center;" vertex="1" parent="1">
          <mxGeometry x="800" y="290" width="100" height="40" as="geometry" />
        </mxCell>
        <mxCell id="gbRmKxwOIsBdeHduXgDJ-84" value="" style="endArrow=none;html=1;rounded=0;exitX=0.967;exitY=0.489;exitDx=0;exitDy=0;exitPerimeter=0;" edge="1" parent="1" source="gbRmKxwOIsBdeHduXgDJ-72" target="gbRmKxwOIsBdeHduXgDJ-85">
          <mxGeometry relative="1" as="geometry">
            <mxPoint x="790" y="349.83" as="sourcePoint" />
            <mxPoint x="950" y="349.83" as="targetPoint" />
          </mxGeometry>
        </mxCell>
        <mxCell id="gbRmKxwOIsBdeHduXgDJ-85" value="judul&lt;div&gt;buku&lt;/div&gt;" style="ellipse;whiteSpace=wrap;html=1;align=center;" vertex="1" parent="1">
          <mxGeometry x="880" y="329.99999999999994" width="100" height="40" as="geometry" />
        </mxCell>
        <mxCell id="gbRmKxwOIsBdeHduXgDJ-86" value="" style="endArrow=none;html=1;rounded=0;exitX=0.733;exitY=0.794;exitDx=0;exitDy=0;exitPerimeter=0;" edge="1" parent="1" source="gbRmKxwOIsBdeHduXgDJ-72" target="gbRmKxwOIsBdeHduXgDJ-87">
          <mxGeometry relative="1" as="geometry">
            <mxPoint x="750" y="370" as="sourcePoint" />
            <mxPoint x="870" y="400.3333333333333" as="targetPoint" />
          </mxGeometry>
        </mxCell>
        <mxCell id="gbRmKxwOIsBdeHduXgDJ-87" value="denda" style="ellipse;whiteSpace=wrap;html=1;align=center;" vertex="1" parent="1">
          <mxGeometry x="820" y="380.33333333333326" width="100" height="40" as="geometry" />
        </mxCell>
        <mxCell id="gbRmKxwOIsBdeHduXgDJ-88" value="" style="endArrow=none;html=1;rounded=0;exitX=0.553;exitY=0.95;exitDx=0;exitDy=0;exitPerimeter=0;" edge="1" parent="1" source="gbRmKxwOIsBdeHduXgDJ-89" target="gbRmKxwOIsBdeHduXgDJ-72">
          <mxGeometry relative="1" as="geometry">
            <mxPoint x="520" y="320" as="sourcePoint" />
            <mxPoint x="680" y="320" as="targetPoint" />
          </mxGeometry>
        </mxCell>
        <mxCell id="gbRmKxwOIsBdeHduXgDJ-89" value="kode&lt;div&gt;penginjaman&lt;/div&gt;" style="ellipse;whiteSpace=wrap;html=1;align=center;" vertex="1" parent="1">
          <mxGeometry x="560" y="260" width="100" height="40" as="geometry" />
        </mxCell>
        <mxCell id="gbRmKxwOIsBdeHduXgDJ-90" value="" style="endArrow=none;html=1;rounded=0;entryX=-0.003;entryY=0.467;entryDx=0;entryDy=0;entryPerimeter=0;exitX=0.78;exitY=0.883;exitDx=0;exitDy=0;exitPerimeter=0;" edge="1" parent="1" source="gbRmKxwOIsBdeHduXgDJ-92" target="gbRmKxwOIsBdeHduXgDJ-72">
          <mxGeometry relative="1" as="geometry">
            <mxPoint x="520" y="320" as="sourcePoint" />
            <mxPoint x="680" y="320" as="targetPoint" />
          </mxGeometry>
        </mxCell>
        <mxCell id="gbRmKxwOIsBdeHduXgDJ-92" value="tanggal&lt;div&gt;kembali&lt;/div&gt;" style="ellipse;whiteSpace=wrap;html=1;align=center;" vertex="1" parent="1">
          <mxGeometry x="460" y="290" width="100" height="40" as="geometry" />
        </mxCell>
        <mxCell id="gbRmKxwOIsBdeHduXgDJ-93" value="" style="endArrow=none;html=1;rounded=0;exitX=0.993;exitY=0.433;exitDx=0;exitDy=0;exitPerimeter=0;" edge="1" parent="1" source="gbRmKxwOIsBdeHduXgDJ-94" target="gbRmKxwOIsBdeHduXgDJ-72">
          <mxGeometry relative="1" as="geometry">
            <mxPoint x="540" y="360" as="sourcePoint" />
            <mxPoint x="680" y="320" as="targetPoint" />
            <Array as="points">
              <mxPoint x="690" y="360" />
            </Array>
          </mxGeometry>
        </mxCell>
        <mxCell id="gbRmKxwOIsBdeHduXgDJ-94" value="tanggal&lt;div&gt;pinjam&lt;/div&gt;" style="ellipse;whiteSpace=wrap;html=1;align=center;" vertex="1" parent="1">
          <mxGeometry x="480" y="340.33" width="100" height="40" as="geometry" />
        </mxCell>
        <mxCell id="gbRmKxwOIsBdeHduXgDJ-95" value="" style="endArrow=none;html=1;rounded=0;entryX=0.356;entryY=0.995;entryDx=0;entryDy=0;entryPerimeter=0;exitX=0.952;exitY=0.695;exitDx=0;exitDy=0;exitPerimeter=0;" edge="1" parent="1" source="gbRmKxwOIsBdeHduXgDJ-96" target="gbRmKxwOIsBdeHduXgDJ-74">
          <mxGeometry relative="1" as="geometry">
            <mxPoint x="580" y="540" as="sourcePoint" />
            <mxPoint x="740" y="540" as="targetPoint" />
          </mxGeometry>
        </mxCell>
        <mxCell id="gbRmKxwOIsBdeHduXgDJ-96" value="judul&lt;div&gt;buku&lt;/div&gt;" style="ellipse;whiteSpace=wrap;html=1;align=center;" vertex="1" parent="1">
          <mxGeometry x="520" y="520" width="100" height="40" as="geometry" />
        </mxCell>
        <mxCell id="gbRmKxwOIsBdeHduXgDJ-97" value="" style="endArrow=none;html=1;rounded=0;exitX=0.796;exitY=0.995;exitDx=0;exitDy=0;exitPerimeter=0;" edge="1" parent="1" source="gbRmKxwOIsBdeHduXgDJ-74" target="gbRmKxwOIsBdeHduXgDJ-98">
          <mxGeometry relative="1" as="geometry">
            <mxPoint x="760" y="530" as="sourcePoint" />
            <mxPoint x="920" y="530" as="targetPoint" />
          </mxGeometry>
        </mxCell>
        <mxCell id="gbRmKxwOIsBdeHduXgDJ-98" value="pengarang" style="ellipse;whiteSpace=wrap;html=1;align=center;" vertex="1" parent="1">
          <mxGeometry x="830" y="530" width="100" height="40" as="geometry" />
        </mxCell>
        <mxCell id="gbRmKxwOIsBdeHduXgDJ-99" value="" style="endArrow=none;html=1;rounded=0;entryX=0.5;entryY=1;entryDx=0;entryDy=0;exitX=0.5;exitY=0;exitDx=0;exitDy=0;exitPerimeter=0;" edge="1" parent="1" source="gbRmKxwOIsBdeHduXgDJ-100" target="gbRmKxwOIsBdeHduXgDJ-74">
          <mxGeometry relative="1" as="geometry">
            <mxPoint x="640" y="560" as="sourcePoint" />
            <mxPoint x="800" y="560" as="targetPoint" />
          </mxGeometry>
        </mxCell>
        <mxCell id="gbRmKxwOIsBdeHduXgDJ-100" value="&lt;u&gt;nomor&lt;/u&gt;&lt;div&gt;&lt;u&gt;buku&lt;/u&gt;&lt;/div&gt;" style="ellipse;whiteSpace=wrap;html=1;align=center;" vertex="1" parent="1">
          <mxGeometry x="590" y="560" width="100" height="40" as="geometry" />
        </mxCell>
        <mxCell id="gbRmKxwOIsBdeHduXgDJ-102" value="" style="endArrow=none;html=1;rounded=0;entryX=0.688;entryY=1.025;entryDx=0;entryDy=0;entryPerimeter=0;exitX=0.752;exitY=0.115;exitDx=0;exitDy=0;exitPerimeter=0;" edge="1" parent="1" source="gbRmKxwOIsBdeHduXgDJ-103" target="gbRmKxwOIsBdeHduXgDJ-74">
          <mxGeometry relative="1" as="geometry">
            <mxPoint x="790" y="570" as="sourcePoint" />
            <mxPoint x="800" y="560" as="targetPoint" />
          </mxGeometry>
        </mxCell>
        <mxCell id="gbRmKxwOIsBdeHduXgDJ-103" value="jenis_buku" style="ellipse;whiteSpace=wrap;html=1;align=center;" vertex="1" parent="1">
          <mxGeometry x="790" y="580" width="100" height="40" as="geometry" />
        </mxCell>
        <mxCell id="gbRmKxwOIsBdeHduXgDJ-104" value="" style="endArrow=none;html=1;rounded=0;entryX=0.584;entryY=1.045;entryDx=0;entryDy=0;entryPerimeter=0;exitX=0.336;exitY=-0.025;exitDx=0;exitDy=0;exitPerimeter=0;" edge="1" parent="1" source="gbRmKxwOIsBdeHduXgDJ-105" target="gbRmKxwOIsBdeHduXgDJ-74">
          <mxGeometry relative="1" as="geometry">
            <mxPoint x="680" y="610" as="sourcePoint" />
            <mxPoint x="800" y="600" as="targetPoint" />
          </mxGeometry>
        </mxCell>
        <mxCell id="gbRmKxwOIsBdeHduXgDJ-105" value="tahun_terbit" style="ellipse;whiteSpace=wrap;html=1;align=center;" vertex="1" parent="1">
          <mxGeometry x="620" y="650" width="100" height="40" as="geometry" />
        </mxCell>
        <mxCell id="gbRmKxwOIsBdeHduXgDJ-106" value="" style="endArrow=none;html=1;rounded=0;entryX=0.632;entryY=1.005;entryDx=0;entryDy=0;entryPerimeter=0;exitX=0.5;exitY=0;exitDx=0;exitDy=0;" edge="1" parent="1" source="gbRmKxwOIsBdeHduXgDJ-107" target="gbRmKxwOIsBdeHduXgDJ-74">
          <mxGeometry relative="1" as="geometry">
            <mxPoint x="730" y="630" as="sourcePoint" />
            <mxPoint x="800" y="600" as="targetPoint" />
          </mxGeometry>
        </mxCell>
        <mxCell id="gbRmKxwOIsBdeHduXgDJ-107" value="penerbit" style="ellipse;whiteSpace=wrap;html=1;align=center;" vertex="1" parent="1">
          <mxGeometry x="740" y="650" width="100" height="40" as="geometry" />
        </mxCell>
      </root>
    </mxGraphModel>
  </diagram>
</mxfile>
